<?xml version="1.0" encoding="utf-8"?>
<!-- Generator: Adobe Illustrator 21.1.0, SVG Export Plug-In . SVG Version: 6.00 Build 0)  -->
<svg version="1.1" id="Layer_1" xmlns="http://www.w3.org/2000/svg" xmlns:xlink="http://www.w3.org/1999/xlink" x="0px" y="0px"
	 viewBox="0 0 135.3 29.9" style="enable-background:new 0 0 135.3 29.9;" xml:space="preserve">
<style type="text/css">
	.st0{fill:#FFCA05;}
	.st1{fill:#D71635;}
</style>
<title>dhl-color</title>
<desc>Created with Sketch.</desc>
<g id="Page-1">
	<g id="dhl-color">
		<g id="DHL">
			<polygon id="Fill-57" class="st0" points="0,29.9 135.3,29.9 135.3,0 0,0 			"/>
			<path id="Fill-58" class="st1" d="M23.8,5.4l-4.3,5.9H43c1.2,0,1.2,0.5,0.6,1.2c-0.6,0.8-1.6,2.2-2.2,3c-0.3,0.4-0.9,1.2,1,1.2
				h9.6c0,0,1.6-2.1,2.9-3.9c1.8-2.4,0.2-7.4-6.2-7.4H23.8z"/>
			<path id="Fill-59" class="st1" d="M17.7,24.5l8.7-11.8h10.8c1.2,0,1.2,0.5,0.6,1.2c-0.6,0.8-1.6,2.2-2.2,3
				c-0.3,0.4-0.9,1.2,1,1.2H51c-1.2,1.6-5.1,6.4-12.1,6.4H17.7z"/>
			<path id="Fill-60" class="st1" d="M67.5,18.1l-4.7,6.4H50.3c0,0,4.7-6.4,4.7-6.4L67.5,18.1z"/>
			<polygon id="Fill-61" class="st1" points="86.5,16.6 56.1,16.6 64.4,5.4 76.8,5.4 72.1,11.8 77.6,11.8 82.4,5.4 94.8,5.4 			"/>
			<path id="Fill-62" class="st1" d="M85.4,18.1l-4.7,6.4H68.3c0,0,4.7-6.4,4.7-6.4H85.4z"/>
			<polygon id="Fill-63" class="st1" points="0,20.6 18.3,20.6 17.3,22 0,22 			"/>
			<polygon id="Fill-64" class="st1" points="0,18.1 20.2,18.1 19.2,19.5 0,19.5 			"/>
			<polygon id="Fill-65" class="st1" points="0,23.1 16.4,23.1 15.4,24.5 0,24.5 			"/>
			<polygon id="Fill-66" class="st1" points="135.3,22 117.1,22 118.1,20.6 135.3,20.6 			"/>
			<polygon id="Fill-67" class="st1" points="135.3,24.5 115.2,24.5 116.2,23.1 135.3,23.1 			"/>
			<polygon id="Fill-68" class="st1" points="119.9,18.1 135.3,18.1 135.3,19.5 118.9,19.5 			"/>
			<path id="Fill-69" class="st1" d="M112,5.4l-8.3,11.3H90.5c0,0,8.3-11.3,8.3-11.3H112z"/>
			<path id="Fill-70" class="st1" d="M89.5,18.1c0,0-0.9,1.2-1.3,1.8c-1.6,2.1-0.2,4.6,4.9,4.6H113l4.7-6.4H89.5z"/>
		</g>
	</g>
</g>
</svg>
