<?xml version="1.0" encoding="UTF-8"?>
<svg width="118px" height="35px" viewBox="0 0 118 35" version="1.1" xmlns="http://www.w3.org/2000/svg" xmlns:xlink="http://www.w3.org/1999/xlink">
    <!-- Generator: Sketch 44.1 (41455) - http://www.bohemiancoding.com/sketch -->
    <title>fedex-color</title>
    <desc>Created with Sketch.</desc>
    <defs></defs>
    <g id="Page-1" stroke="none" stroke-width="1" fill="none" fill-rule="evenodd">
        <g id="fedex-color">
            <g id="FedEx">
                <polygon id="Fill-86" fill="#F3791F" points="101.469396 33.2052544 96.9163364 28.0986276 92.4051475 33.2052544 82.9134885 33.2052544 92.1919862 22.7788396 82.9134885 12.3513373 92.7025945 12.3513373 97.2991567 17.4160931 101.723885 12.3513373 111.173129 12.3513373 101.93759 22.7358811 111.299286 33.2047106"></polygon>
                <polygon id="Fill-87" fill="#F3791F" points="64.6793346 33.2052544 64.6793346 0.355576959 82.9133253 0.355576959 82.9133253 7.6781023 72.4020811 7.6781023 72.4020811 12.3513373 82.9133253 12.3513373 82.9133253 19.3959917 72.4020811 19.3959917 72.4020811 25.863153 82.9133253 25.863153 82.9133253 33.2052544"></polygon>
                <path d="M52.3200581,28.2042295 C49.4858829,28.2042295 47.7240396,25.5609207 47.7240396,22.8039622 C47.7240396,19.8550498 49.2553207,17.0203309 52.3200581,17.0203309 C55.4984452,17.0203309 56.7627309,19.8550498 56.7627309,22.8039622 C56.7627309,25.5989853 55.4223161,28.2042295 52.3200581,28.2042295 L52.3200581,28.2042295 Z M24.9891917,19.4945244 C25.4742424,17.4091327 27.0919843,16.0447917 29.1132101,16.0447917 C31.3367217,16.0447917 32.8728968,17.366718 33.278012,19.4945244 L24.9891917,19.4945244 Z M56.9883991,0.355685714 L56.9883991,13.799529 L56.9035696,13.799529 C55.2015419,11.8419253 53.0737355,11.1605705 50.6055235,11.1605705 C45.5478369,11.1605705 41.7381226,14.5994276 40.4026018,19.1432433 C38.8762147,14.1366719 34.9441502,11.0681281 29.1132101,11.0681281 C24.3768968,11.0681281 20.6395051,13.1932157 18.6867954,16.6565429 L18.6867954,12.3514461 L8.89823318,12.3514461 L8.89823318,7.67821106 L19.5807677,7.67821106 L19.5807677,0.355685714 L0.172758525,0.355685714 L0.172758525,33.2053631 L8.89823318,33.2053631 L8.89823318,19.3961005 L17.5959751,19.3961005 C17.3360488,20.4113355 17.1973853,21.4972618 17.1973853,22.6430037 C17.1973853,29.4957041 22.4323438,34.3048839 29.1132101,34.3048839 C34.7315327,34.3048839 38.4335788,31.6659253 40.3911825,26.8567456 L32.914224,26.8567456 C31.9027954,28.303741 31.1355235,28.7316949 29.1132101,28.7316949 C26.7689797,28.7316949 24.7466664,26.6865429 24.7466664,24.2612894 L39.9735604,24.2612894 C40.6331641,29.7023401 44.8724636,34.3973263 50.690353,34.3973263 C53.2009797,34.3973263 55.4995327,33.1629484 56.9035696,31.0770129 L56.9883991,31.0770129 L56.9883991,33.2053631 L64.6796065,33.2053631 L64.6796065,0.355685714 L56.9883991,0.355685714 Z" id="Fill-88" fill="#472F91"></path>
                <path d="M115.48176,30.843188 C115.847724,30.8295935 115.930922,30.678423 115.930922,30.4875567 C115.930922,30.3037594 115.847724,30.2069668 115.538313,30.2069668 L115.071751,30.2069668 L115.071751,30.843188 L115.48176,30.843188 Z M115.071751,31.2281834 L115.071751,32.3032341 L114.683493,32.3032341 L114.683493,29.8187088 L115.488286,29.8187088 C115.942885,29.8187088 116.414885,29.9443217 116.414885,30.5049576 C116.414885,30.7909853 116.240876,31.0166535 115.908627,31.084082 L115.908627,31.0949576 C116.252839,31.16293 116.290359,31.315188 116.331143,31.5843585 C116.364313,31.8181834 116.39259,32.0781097 116.477963,32.3032341 L115.983124,32.3032341 C115.954304,32.1634829 115.915152,32.0052433 115.898295,31.858423 C115.870562,31.6452618 115.870562,31.4473263 115.757456,31.32987 C115.661751,31.2281834 115.533419,31.2396028 115.397475,31.2281834 L115.071751,31.2281834 Z M117.258286,31.088976 C117.258286,30.1335567 116.483401,29.351059 115.522,29.351059 C114.554618,29.351059 113.774295,30.1335567 113.774295,31.088976 C113.774295,32.055271 114.554618,32.8361373 115.522,32.8361373 C116.483401,32.8361373 117.258286,32.055271 117.258286,31.088976 L117.258286,31.088976 Z M113.403982,31.088976 C113.403982,29.9258332 114.347438,28.9802018 115.522,28.9802018 C116.690581,28.9802018 117.628599,29.9258332 117.628599,31.088976 C117.628599,32.264082 116.690581,33.2064507 115.522,33.2064507 C114.347438,33.2064507 113.403982,32.264082 113.403982,31.088976 L113.403982,31.088976 Z" id="Fill-89" fill="#F3791F"></path>
            </g>
        </g>
    </g>
</svg>