<?xml version="1.0" encoding="UTF-8"?>
<svg width="148px" height="26px" viewBox="0 0 148 26" version="1.1" xmlns="http://www.w3.org/2000/svg" xmlns:xlink="http://www.w3.org/1999/xlink">
    <!-- Generator: Sketch 44.1 (41455) - http://www.bohemiancoding.com/sketch -->
    <title>usps-color</title>
    <desc>Created with Sketch.</desc>
    <defs></defs>
    <g id="Page-1" stroke="none" stroke-width="1" fill="none" fill-rule="evenodd">
        <g id="usps-color">
            <g id="USPS">
                <path d="M143.895907,21.5481689 C144.400394,21.5481689 144.896733,21.5339102 144.896733,20.9676358 C144.896733,20.5011723 144.509031,20.3932135 144.10843,20.3932135 L143.353397,20.3932135 L143.353397,21.5481689 L143.895907,21.5481689 Z M143.353397,23.3800736 L142.94261,23.3800736 L142.94261,20.0435356 L144.222499,20.0435356 C144.97889,20.0435356 145.306161,20.368091 145.306161,20.9676358 C145.306161,21.5556378 144.921855,21.8211214 144.474403,21.8978468 L145.465723,23.3800736 L144.981606,23.3800736 L144.044605,21.8978468 L143.353397,21.8978468 L143.353397,23.3800736 Z M141.553405,21.7104466 C141.553405,23.0908255 142.592254,24.1839932 143.990286,24.1839932 C145.383566,24.1839932 146.424451,23.0908255 146.424451,21.7104466 C146.424451,20.3287098 145.383566,19.2355421 143.990286,19.2355421 C142.592254,19.2355421 141.553405,20.3287098 141.553405,21.7104466 L141.553405,21.7104466 Z M146.876656,21.7104466 C146.876656,23.3332235 145.620532,24.5954588 143.990286,24.5954588 C142.361398,24.5954588 141.105274,23.3332235 141.105274,21.7104466 C141.105274,20.0910646 142.361398,18.8254344 143.990286,18.8254344 C145.620532,18.8254344 146.876656,20.0910646 146.876656,21.7104466 L146.876656,21.7104466 Z" id="Fill-265" fill="#124B9F"></path>
                <polygon id="Fill-266" fill="#FFFFFF" points="34.5808329 25.2152374 39.8293959 0.525263692 5.46319053 0.525263692 0.215306511 25.2152374"></polygon>
                <path d="M6.17945303,1.54591569 C6.17945303,1.54591569 25.2881605,5.47385061 25.6670348,5.5383543 C30.0566803,6.3130775 29.920883,7.16113121 29.920883,7.16113121 C32.9946534,7.14347757 33.3735276,7.26909001 33.9119637,7.71722088 C35.5306667,9.0697613 32.8995953,13.0479412 32.8995953,13.0479412 C32.524795,13.3283625 4.09971842,24.3062107 4.09971842,24.3062107 L33.8372752,24.3062107 L38.700853,1.43795689 L6.19914362,1.44135182 L6.17945303,1.54591569 Z" id="Fill-267" fill="#124B9F"></path>
                <path d="M28.4265024,8.95338308 C27.9953462,9.16658473 26.8675502,9.28201238 26.3433729,9.32886242 C25.8334543,9.37231754 25.696978,9.42188353 25.6888302,9.61675255 C25.6813614,9.79057301 25.7641977,9.89106296 26.4907129,9.89106296 C28.1603398,9.89106296 31.1668905,9.26028482 32.0726581,9.54885394 C32.5499853,9.70026785 32.1636422,10.5551114 31.7752621,11.6727226 C31.6231692,12.1059158 31.9205652,12.0773984 32.0930277,11.8852453 C32.2668481,11.6978451 33.0456452,10.2699372 33.1305185,9.54138509 C33.2500201,8.50932613 32.368017,8.35451729 31.143805,8.35451729 L29.2012256,8.35451729 C29.1014146,8.35451729 29.0158624,8.42377387 28.8963608,8.58265663 C28.78976,8.72320677 28.7014918,8.81283294 28.4265024,8.95338308" id="Fill-268" fill="#124B9F"></path>
                <path d="M5.07508204,6.72447522 L1.34269513,24.3108957 C1.34269513,24.3108957 12.778859,18.6983961 14.1741755,17.9807077 C17.0415341,16.5093447 21.0020604,14.5613335 24.6638327,13.3133569 C25.3618305,13.0757117 28.3541225,12.1556855 30.0916481,11.8453888 C30.7699552,11.7231713 31.0530925,11.6111386 31.0442656,11.4855262 C31.0205011,11.1243055 30.3442309,11.1039359 29.1933494,11.1568969 C25.6884228,11.3232485 18.9698548,13.995738 17.0388181,15.0169332 L14.8558776,8.25423103 L28.8008954,8.25423103 C29.4248836,6.49769384 20.5478186,6.74212886 20.2680763,6.72447522 L5.077119,6.72447522 L5.07508204,6.72447522 Z" id="Fill-269" fill="#124B9F"></path>
                <path d="M46.8675628,10.1655092 C44.6085758,10.1655092 43.2573934,9.25702569 43.7000923,7.24790564 C44.4401872,3.77149651 44.9310942,1.43782109 44.9310942,1.43782109 L46.8207127,1.43782109 C46.8207127,1.43782109 45.6616833,6.80724363 45.6976696,6.67416234 C45.4002737,8.00158028 45.6976696,8.80142597 47.1439101,8.81636367 C48.5290419,8.81636367 49.2379034,8.01651798 49.5223986,6.67416234 C49.6880713,5.906229 50.6461207,1.43782109 50.6461207,1.43782109 L52.5357392,1.43782109 C51.2660351,7.24790564 52.5357392,1.43782109 51.2802938,7.24790564 C50.8477796,9.25702569 49.1292657,10.1655092 46.8675628,10.1655092" id="Fill-270" fill="#124B9F"></path>
                <polygon id="Fill-271" fill="#124B9F" points="60.0643377 10.0107003 57.6878862 10.0107003 55.5680914 3.65199495 55.5327841 3.65199495 54.2074031 10.0107003 52.5303073 10.0107003 54.3493112 1.43782109 56.8004513 1.43782109 58.8346938 7.86782001 58.8577793 7.86782001 60.2096408 1.43782109 61.8840206 1.43782109"></polygon>
                <polygon id="Fill-272" fill="#124B9F" points="63.7692257 10.0107003 61.8836811 10.0107003 63.6979322 1.43782109 65.5895876 1.43782109"></polygon>
                <polygon id="Fill-273" fill="#124B9F" points="73.7782965 2.8010895 71.1105598 2.8010895 69.581483 10.0105645 67.6911856 10.0105645 69.2216204 2.8010895 66.5559207 2.8010895 66.8553536 1.43768529 74.0627917 1.43768529"></polygon>
                <polygon id="Fill-274" fill="#124B9F" points="81.2531193 2.8010895 76.9334093 2.8010895 76.4560821 5.03699092 80.2203813 5.03699092 79.9460709 6.30262112 76.1817717 6.30262112 75.6908647 8.64648133 80.0065007 8.64648133 79.7179316 10.0105645 73.5038503 10.0105645 75.333718 1.43768529 81.5376145 1.43768529"></polygon>
                <path d="M86.4546285,2.8010895 L84.5290238,2.8010895 L83.2864791,8.64648133 L84.6376616,8.64648133 C86.776468,8.64648133 88.0095068,7.24776985 88.343568,5.32488105 C88.5832501,3.96147684 88.0217286,2.8010895 86.4546285,2.8010895 M84.9724018,10.0105645 L81.0987857,10.0105645 L82.9184686,1.43768529 L87.0772588,1.43768529 C89.669628,1.43768529 90.5448412,3.16095216 90.1734357,5.34728759 C89.6594432,8.43395867 87.363112,10.0105645 84.9724018,10.0105645" id="Fill-275" fill="#124B9F"></path>
                <path d="M99.3646677,2.8010895 L97.3412889,2.8010895 C96.3133039,2.8010895 95.8481983,3.01768608 95.7538193,3.43526257 C95.4659291,4.79934576 99.1602928,5.88504463 98.8133309,7.9905807 C98.6211778,9.16251081 97.5938718,10.0105645 95.227605,10.0105645 L92.333766,10.0105645 L92.6189402,8.64648133 L94.9519366,8.64648133 C95.668267,8.64648133 96.553665,8.68314659 96.7213745,7.96477923 C96.9963639,6.73241935 93.361072,5.51635514 93.6353825,3.46174303 C93.8017341,2.22734619 94.9030496,1.43768529 97.1267293,1.43768529 L99.6620636,1.43768529 L99.3646677,2.8010895 Z" id="Fill-276" fill="#124B9F"></path>
                <polygon id="Fill-277" fill="#124B9F" points="107.55521 2.8010895 104.885436 2.8010895 103.358396 10.0105645 101.468778 10.0105645 103.000571 2.8010895 100.332834 2.8010895 100.634304 1.43768529 107.8431 1.43768529"></polygon>
                <polygon id="Fill-278" fill="#124B9F" points="107.89769 10.0107003 108.638464 8.64661713 111.339471 8.64661713 110.587834 3.13664446 106.81946 10.0107003 104.932558 10.0107003 109.845023 1.43782109 112.104689 1.43782109 113.44297 10.0107003"></polygon>
                <polygon id="Fill-279" fill="#124B9F" points="121.112051 2.8010895 118.444315 2.8010895 116.917275 10.0105645 115.027656 10.0105645 116.557412 2.8010895 113.891712 2.8010895 114.189108 1.43768529 121.398583 1.43768529"></polygon>
                <polygon id="Fill-280" fill="#124B9F" points="128.574313 2.8010895 124.260035 2.8010895 123.782707 5.03699092 127.548365 5.03699092 127.274054 6.30262112 123.505681 6.30262112 123.016132 8.64648133 127.333805 8.64648133 127.044557 10.0105645 120.827081 10.0105645 122.659664 1.43768529 128.86424 1.43768529"></polygon>
                <path d="M135.255401,2.8010895 L133.23338,2.8010895 C132.205395,2.8010895 131.738931,3.01768608 131.644552,3.43526257 C131.357341,4.79934576 135.04831,5.88504463 134.704064,7.9905807 C134.511911,9.16251081 133.483926,10.0105645 131.11698,10.0105645 L128.224499,10.0105645 L128.510352,8.64648133 L130.843349,8.64648133 C131.559679,8.64648133 132.44304,8.68314659 132.612787,7.96477923 C132.887097,6.73241935 129.251805,5.51635514 129.527473,3.46174303 C129.69722,2.22734619 130.793783,1.43768529 133.020857,1.43768529 L135.554155,1.43768529 L135.255401,2.8010895 Z" id="Fill-281" fill="#124B9F"></path>
                <path d="M44.2997729,21.0289482 C44.002377,21.0289482 43.6778216,20.9820982 43.4055481,20.9569757 L43.3104901,19.712394 C43.5481352,19.7341216 43.8604689,19.7694289 44.1449641,19.7694289 C45.4377537,19.7694289 45.9042172,18.8860679 46.011497,18.3741123 C46.2131559,17.4398274 45.7371866,17.0942234 45.0432628,17.0942234 L43.4999272,17.0942234 L41.9701714,24.3036984 L40.0819109,24.3036984 L41.8981989,15.7308192 L45.9985963,15.7308192 C47.8535865,15.7308192 48.0674671,17.3461273 47.8400067,18.4168885 C47.4937238,20.0478132 45.9985963,21.0289482 44.2997729,21.0289482" id="Fill-282" fill="#124B9F"></path>
                <path d="M53.6159383,16.9388035 C51.9042142,16.9388035 50.7703073,18.0747473 50.3282873,20.0112159 C49.9548449,21.674053 50.5435259,23.095171 52.3116059,23.095171 C54.020614,23.095171 55.1681006,21.9476844 55.5754923,20.0112159 C55.9468978,18.2764062 55.3609327,16.9388035 53.6159383,16.9388035 M52.012173,24.4585752 C49.3729538,24.4585752 47.8866531,22.4494551 48.3999666,20.0112159 C49.0483984,16.9598521 51.2605353,15.5747203 53.9126552,15.5747203 C56.5437266,15.5747203 58.0626186,17.4650178 57.5119609,20.0112159 C56.8431595,23.1311572 54.6921314,24.4585752 52.012173,24.4585752" id="Fill-283" fill="#124B9F"></path>
                <path d="M64.3680236,17.0939518 L62.3473608,17.0939518 C61.3200547,17.0939518 60.8515543,17.3057955 60.7564962,17.72473 C60.472001,19.0922081 64.1670437,20.177228 63.8187238,22.282764 C63.6279287,23.4512992 62.5992647,24.3034269 60.2323189,24.3034269 L57.3391589,24.3034269 L57.6243331,22.9407016 L59.9546136,22.9407016 C60.6736599,22.9407016 61.5590579,22.9760089 61.7267674,22.2576416 C61.9990409,21.0286766 58.3678229,19.8092175 58.6414543,17.7532474 C58.807127,16.5202085 59.9070845,15.7305476 62.1328012,15.7305476 L64.6674565,15.7305476 L64.3680236,17.0939518 Z" id="Fill-284" fill="#124B9F"></path>
                <polygon id="Fill-285" fill="#124B9F" points="72.5586336 17.0939518 69.891576 17.0939518 68.3631782 24.3034269 66.4755966 24.3034269 68.0060314 17.0939518 65.3362579 17.0939518 65.6356908 15.7305476 72.8478817 15.7305476"></polygon>
                <polygon id="Fill-286" fill="#124B9F" points="72.914694 24.3035626 73.6561469 22.9408374 76.3591907 22.9408374 75.6048371 17.4288278 71.8378219 24.3035626 69.9502404 24.3035626 74.8593103 15.7306834 77.1210132 15.7306834 78.4599739 24.3035626"></polygon>
                <polygon id="Fill-287" fill="#124B9F" points="85.2445394 24.3035626 79.4459976 24.3035626 81.2636436 15.7306834 83.1654838 15.7306834 81.635049 22.9408374 85.5419353 22.9408374"></polygon>
                <path d="M95.4661328,17.0939518 L93.444791,17.0939518 C92.416806,17.0939518 91.9496635,17.3057955 91.8532475,17.72473 C91.5707892,19.0922081 95.2644739,20.177228 94.9154751,22.282764 C94.7246799,23.4512992 93.6973739,24.3034269 91.3290702,24.3034269 L88.4386261,24.3034269 L88.7210843,22.9407016 L91.0534018,22.9407016 C91.7710902,22.9407016 92.6564881,22.9760089 92.8235187,22.2576416 C93.0957922,21.0286766 89.4645742,19.8092175 89.7409215,17.7532474 C89.9065942,16.5202085 91.0065517,15.7305476 93.2302314,15.7305476 L95.7655657,15.7305476 L95.4661328,17.0939518 Z" id="Fill-288" fill="#124B9F"></path>
                <polygon id="Fill-289" fill="#124B9F" points="103.31854 17.0939518 99.0001879 17.0939518 98.5242186 19.3298532 102.289197 19.3298532 102.017602 20.5954834 98.2505872 20.5954834 97.7576432 22.9407016 102.076674 22.9407016 101.788105 24.3034269 95.5706288 24.3034269 97.4011755 15.7305476 103.604393 15.7305476"></polygon>
                <path d="M108.751719,20.6059398 L110.16401,24.3036984 L108.097856,24.3036984 L106.542298,19.6037563 C106.779264,19.6397425 107.079376,19.6295577 107.259308,19.6295577 C108.225505,19.6295577 109.110903,19.2208081 109.317315,18.2043658 C109.423237,17.6672877 109.325462,17.0792857 108.276429,17.0792857 L106.577606,17.0792857 L105.046492,24.3036984 L103.158231,24.3036984 L104.977914,15.7308192 L108.968316,15.7308192 C110.642696,15.7308192 111.311497,16.4844938 111.204896,17.9157967 C111.085395,19.5317837 110.007165,20.4300824 108.751719,20.6059398" id="Fill-290" fill="#124B9F"></path>
                <polygon id="Fill-291" fill="#124B9F" points="115.729253 24.3035626 113.497425 24.3035626 112.204635 15.7306834 114.091538 15.7306834 114.977615 22.6047393 118.741914 15.7306834 120.608447 15.7306834"></polygon>
                <polygon id="Fill-292" fill="#124B9F" points="121.820913 24.3035626 119.932652 24.3035626 121.746903 15.7306834 123.63788 15.7306834"></polygon>
                <path d="M131.29888,17.2129781 C130.76316,17.0574903 130.166332,16.9386677 129.289081,16.9386677 C127.579394,16.9386677 126.123648,18.0746115 125.716935,20.0110801 C125.310223,21.9482276 126.27642,23.0957142 127.988144,23.0957142 C128.886443,23.0957142 129.602094,22.9612749 130.283796,22.7962813 L129.818012,24.2669653 C129.125446,24.3742451 128.431522,24.4584394 127.698896,24.4584394 C125.071219,24.4584394 123.122529,23.0807765 123.779788,20.0110801 C124.424146,16.9386677 126.95948,15.5745845 129.589193,15.5745845 C130.224045,15.5745845 130.858218,15.6580998 131.467948,15.7660586 L131.29888,17.2129781 Z" id="Fill-293" fill="#124B9F"></path>
                <polygon id="Fill-294" fill="#124B9F" points="138.916901 17.0939518 134.599228 17.0939518 134.119864 19.3298532 137.889595 19.3298532 137.61189 20.5954834 133.84827 20.5954834 133.356684 22.9407016 137.671641 22.9407016 137.38443 24.3034269 131.168311 24.3034269 132.996142 15.7305476 139.202076 15.7305476"></polygon>
                <polygon id="Fill-295" fill="#EC1F29" points="139.745061 13.1911394 139.876784 12.5562873 42.5726358 12.5562873 42.4381966 13.1911394"></polygon>
            </g>
        </g>
    </g>
</svg>